<?xml version="1.0" encoding="UTF-8" standalone="no"?>
<!-- Created with Inkscape (http://www.inkscape.org/) -->

<svg
   xmlns:dc="http://purl.org/dc/elements/1.1/"
   xmlns:cc="http://creativecommons.org/ns#"
   xmlns:rdf="http://www.w3.org/1999/02/22-rdf-syntax-ns#"
   xmlns:svg="http://www.w3.org/2000/svg"
   xmlns="http://www.w3.org/2000/svg"
   xmlns:sodipodi="http://sodipodi.sourceforge.net/DTD/sodipodi-0.dtd"
   xmlns:inkscape="http://www.inkscape.org/namespaces/inkscape"
   id="svg3336"
   version="1.1"
   inkscape:version="0.91 r13725"
   width="240"
   height="240"
   viewBox="0 0 240 240"
   sodipodi:docname="icono.svg">
  <metadata
     id="metadata3342">
    <rdf:RDF>
      <cc:Work
         rdf:about="">
        <dc:format>image/svg+xml</dc:format>
        <dc:type
           rdf:resource="http://purl.org/dc/dcmitype/StillImage" />
        <dc:title />
      </cc:Work>
    </rdf:RDF>
  </metadata>
  <defs
     id="defs3340" />
  <sodipodi:namedview
     pagecolor="#ffffff"
     bordercolor="#666666"
     borderopacity="1"
     objecttolerance="10"
     gridtolerance="10"
     guidetolerance="10"
     inkscape:pageopacity="0"
     inkscape:pageshadow="2"
     inkscape:window-width="1920"
     inkscape:window-height="1005"
     id="namedview3338"
     showgrid="false"
     showguides="true"
     inkscape:guide-bbox="true"
     inkscape:zoom="3.3833333"
     inkscape:cx="88.9944"
     inkscape:cy="143.64532"
     inkscape:window-x="-9"
     inkscape:window-y="-9"
     inkscape:window-maximized="1"
     inkscape:current-layer="svg3336">
    <sodipodi:guide
       position="168.76847,142.75862"
       orientation="0,1"
       id="guide3346" />
    <sodipodi:guide
       position="152.21675,159.31034"
       orientation="0,1"
       id="guide3348" />
  </sodipodi:namedview>
  <path
     style="fill:#ff5500;fill-opacity:0"
     d="m 0.82758546,72.088669 0,-15.517241 7.68472914,0 7.6847294,0 0,1.625616 0,1.625616 -5.91133,0 -5.9113305,0 0,12.266009 0,12.26601 19.6551725,0 19.655173,0 0,-12.26601 0,-12.266009 -5.91133,0 -5.91133,0 0,-1.625616 0,-1.625616 7.684729,0 7.684729,0 0,15.517241 0,15.517242 -23.201971,0 -23.20197054,0 0,-15.517242 z"
     id="path4148"
     inkscape:connector-curvature="0" />
  <path
     style="fill:#ff5500;fill-opacity:0"
     d="m 0.82758546,72.088669 0,-15.517241 7.68472914,0 7.6847294,0 0,1.625616 0,1.625616 -5.91133,0 -5.9113305,0 0,12.266009 0,12.26601 19.6551725,0 19.655173,0 0,-12.26601 0,-12.266009 -5.91133,0 -5.91133,0 0,-1.625616 0,-1.625616 7.684729,0 7.684729,0 0,15.517241 0,15.517242 -23.201971,0 -23.20197054,0 0,-15.517242 z"
     id="path4150"
     inkscape:connector-curvature="0" />
  <path
     style="fill:#ff5500;fill-opacity:0"
     d="m 0.82758546,72.088669 0,-15.517241 7.68472914,0 7.6847294,0 0,1.625616 0,1.625616 -5.91133,0 -5.9113305,0 0,12.266009 0,12.26601 19.6551725,0 19.655173,0 0,-12.26601 0,-12.266009 -5.91133,0 -5.91133,0 0,-1.625616 0,-1.625616 7.684729,0 7.684729,0 0,15.517241 0,15.517242 -23.201971,0 -23.20197054,0 0,-15.517242 z"
     id="path4152"
     inkscape:connector-curvature="0" />
  <path
     style="fill:#ff5500;fill-opacity:0"
     d="m 0.82758546,72.088669 0,-15.517241 7.68472914,0 7.6847294,0 0,1.625616 0,1.625616 -5.91133,0 -5.9113305,0 0,12.266009 0,12.26601 19.6551725,0 19.655173,0 0,-12.26601 0,-12.266009 -5.91133,0 -5.91133,0 0,-1.625616 0,-1.625616 7.684729,0 7.684729,0 0,15.517241 0,15.517242 -23.201971,0 -23.20197054,0 0,-15.517242 z"
     id="path4154"
     inkscape:connector-curvature="0" />
  <path
     style="fill:#ff5500;fill-opacity:0"
     d="m 0.82758546,72.088669 0,-15.517241 7.68472914,0 7.6847294,0 0,1.625616 0,1.625616 -5.91133,0 -5.9113305,0 0,12.266009 0,12.26601 19.6551725,0 19.655173,0 0,-12.26601 0,-12.266009 -5.91133,0 -5.91133,0 0,-1.625616 0,-1.625616 7.684729,0 7.684729,0 0,15.517241 0,15.517242 -23.201971,0 -23.20197054,0 0,-15.517242 z"
     id="path4156"
     inkscape:connector-curvature="0" />
  <path
     style="fill:#000000;fill-opacity:1"
     d="m 50.482758,72.236453 0,-10.935961 1.620361,0 1.620361,0 0.07915,7.079795 0.07915,7.079796 4.792541,-3.991408 4.79254,-3.991408 1.709923,0.08895 1.709922,0.08895 -4.359606,3.504212 c -2.397783,1.927317 -4.359605,3.546326 -4.359605,3.597799 0,0.05147 2.134999,1.965956 4.744443,4.254408 l 4.744444,4.160822 -1.956838,0 -1.956837,0 -3.789312,-3.399014 c -2.084121,-1.869459 -3.895585,-3.399015 -4.025474,-3.399015 -0.129889,0 -0.67575,0.299261 -1.213024,0.665024 l -0.976861,0.665025 -0.002,2.73399 -0.002,2.73399 -1.625616,0 -1.625616,0 0,-10.93596 z"
     id="path4158"
     inkscape:connector-curvature="0" />
  <path
     style="fill:#000000;fill-opacity:1"
     d="m 50.482758,72.236453 0,-10.935961 1.620361,0 1.620361,0 0.07915,7.086295 0.07915,7.086295 4.729064,-3.974943 4.729064,-3.974943 1.867345,-0.0079 1.867346,-0.0079 -4.084094,3.291619 c -2.246252,1.810391 -4.255617,3.449719 -4.465256,3.64295 -0.303303,0.279564 0.590331,1.20713 4.374772,4.540893 l 4.755935,4.189562 -1.964769,0 -1.964769,0 -3.59227,-3.197883 c -1.975748,-1.758836 -3.764273,-3.299795 -3.974501,-3.424353 -0.231181,-0.136973 -0.785989,0.08149 -1.403941,0.552827 l -1.021709,0.779296 0,2.645057 0,2.645056 -1.625616,0 -1.625616,0 0,-10.93596 z"
     id="path4160"
     inkscape:connector-curvature="0" />
  <path
     style="fill:#000000;fill-opacity:1"
     d="m 50.482758,72.236453 0,-10.935961 1.625616,0 1.625616,0 0,6.945813 c 0,3.820197 0.09975,6.943289 0.221675,6.940205 0.121921,-0.0031 2.283251,-1.729625 4.802956,-3.836757 l 4.58128,-3.831149 1.879773,-0.0056 1.879772,-0.0056 -3.505388,2.850812 c -1.927964,1.567947 -3.871152,3.122516 -4.318196,3.454599 -0.447044,0.332082 -0.812808,0.750864 -0.812808,0.930626 0,0.179761 2.04473,2.116572 4.543844,4.304022 l 4.543844,3.977182 -1.906241,0.08791 -1.906242,0.08791 -3.45041,-3.045945 C 55.416401,75.854098 55.981822,76.167795 54.76917,77.09273 l -1.03518,0.78957 0,2.645057 0,2.645056 -1.625616,0 -1.625616,0 0,-10.93596 z"
     id="path4162"
     inkscape:connector-curvature="0" />
  <path
     style="fill:#ff5500;fill-opacity:1"
     d="m 134.42365,72.236453 0,-10.935961 1.47783,0 1.47783,0 0,7.093596 c 0,3.901478 0.0998,7.091665 0.22168,7.089306 0.12192,-0.0024 2.34975,-1.796763 4.95073,-3.987561 l 4.72907,-3.98327 1.69951,-0.0026 c 0.93473,-0.0014 1.6995,0.04976 1.6995,0.113749 0,0.06399 -1.92857,1.676465 -4.28571,3.58329 -2.35714,1.906823 -4.28571,3.511229 -4.28571,3.565345 0,0.05412 2.08663,1.933015 4.63696,4.175332 l 4.63697,4.076952 -1.84566,0.08843 -1.84566,0.08843 -3.82722,-3.433014 c -4.09832,-3.676196 -4.1985,-3.717721 -5.67165,-2.350901 -0.76322,0.708125 -0.81281,0.9067 -0.81281,3.254493 l 0,2.500354 -1.47783,0 -1.47783,0 0,-10.93596 z"
     id="path4164"
     inkscape:connector-curvature="0" />
  <path
     style="fill:#ff5500;fill-opacity:1"
     d="m 124.66995,75.339901 0,-7.832512 1.47783,0 1.47784,0 0,7.832512 0,7.832512 -1.47784,0 -1.47783,0 0,-7.832512 z"
     id="path4166"
     inkscape:connector-curvature="0" />
  <path
     style="fill:#ff5500;fill-opacity:1"
     d="m 128.00572,63.517241 c 0.002,-0.812808 0.0596,-1.11024 0.12756,-0.660961 0.0679,0.44928 0.0661,1.114304 -0.004,1.477833 -0.0702,0.363528 -0.12574,-0.0041 -0.12352,-0.816872 z"
     id="path4168"
     inkscape:connector-curvature="0" />
  <path
     style="fill:#ff5500;fill-opacity:1"
     d="m 124.37438,63.517241 0,-1.330049 1.7734,0 1.7734,0 0,1.330049 0,1.330049 -1.7734,0 -1.7734,0 0,-1.330049 z"
     id="path4170"
     inkscape:connector-curvature="0" />
  <path
     style="fill:#ff5500;fill-opacity:1"
     d="m 109.30049,75.339901 0,-7.832512 1.62562,0 1.62561,0 0,1.206896 c 0,0.663793 0.0998,1.1618 0.22168,1.106681 0.12192,-0.05512 0.92374,-0.469379 1.78182,-0.920578 1.86258,-0.979386 4.13277,-1.458543 5.71311,-1.205835 1.10296,0.17637 1.15039,0.230309 1.15039,1.3083 l 0,1.124347 -2.58621,-0.05375 c -2.34042,-0.04864 -2.75474,0.03052 -4.3596,0.832951 l -1.7734,0.8867 -0.0803,5.689655 -0.0803,5.689655 -1.61923,0 -1.61924,0 0,-7.832512 z"
     id="path4172"
     inkscape:connector-curvature="0" />
  <path
     style="fill:#ff5500;fill-opacity:1"
     d="M 74.571429,82.926972 C 71.825596,81.631537 71.46798,80.51995 71.46798,73.280429 l 0,-5.77304 1.455647,0 1.455647,0 0.09608,5.837438 c 0.102755,6.243152 0.212453,6.734494 1.678722,7.51908 1.510163,0.808073 5.636517,0.210035 7.648971,-1.108575 0.659104,-0.431861 0.669862,-0.533742 0.669862,-6.343427 l 0,-5.904516 1.477833,0 1.477833,0 0,7.832512 0,7.832512 -1.477833,0 c -1.453868,0 -1.477833,-0.01478 -1.477833,-0.91133 0,-0.501231 -0.09975,-0.860617 -0.221674,-0.798635 -3.284919,1.66998 -3.851534,1.848651 -6.133005,1.933921 -1.838056,0.0687 -2.627771,-0.03582 -3.546798,-0.469397 z"
     id="path4174"
     inkscape:connector-curvature="0" />
  <path
     style="fill:#ff5500;fill-opacity:1"
     d="m 94.226601,75.339901 0,-7.832512 1.477833,0 1.477832,0 0,1.206896 c 0,0.663793 0.09975,1.1618 0.221675,1.106681 0.121921,-0.05512 0.923742,-0.469379 1.781824,-0.920578 1.862575,-0.979386 4.132765,-1.458543 5.713105,-1.205835 1.10139,0.176118 1.15039,0.231528 1.15039,1.300775 l 0,1.116822 -2.43842,-0.02441 c -2.41824,-0.02421 -4.042714,0.397575 -5.763549,1.496462 -0.651188,0.415834 -0.665025,0.540811 -0.665025,6.006441 l 0,5.58177 -1.477832,0 -1.477833,0 0,-7.832512 z"
     id="path4176"
     inkscape:connector-curvature="0" />
  <path
     style="fill:#ff5500;fill-opacity:1"
     d="m 50.482758,72.236453 0,-10.935961 1.625616,0 1.625616,0 0,6.945813 c 0,3.820197 0.09975,6.941867 0.221675,6.937045 0.121921,-0.0048 2.283251,-1.733116 4.802956,-3.840653 l 4.58128,-3.831887 1.906404,-0.0017 c 1.062329,-9.46e-4 1.782083,0.108885 1.625616,0.248078 -0.476884,0.424236 -7.912649,6.38769 -8.241997,6.610049 -0.402002,0.271411 1.12772,1.83614 5.52042,5.646753 l 3.47054,3.010654 -1.937023,0.08781 -1.937023,0.08781 -3.4547,-3.021762 C 58.392053,78.516521 56.607574,76.962707 56.32663,76.725569 55.871102,76.34107 55.703173,76.38033 54.774906,77.088355 l -1.040916,0.793945 0,2.645057 0,2.645056 -1.625616,0 -1.625616,0 0,-10.93596 z"
     id="path4178"
     inkscape:connector-curvature="0" />
  <path
     style="fill:#ff5500;fill-opacity:1"
     d="m 0.82758546,72.088669 0,-15.517241 7.68472914,0 7.6847294,0 0,1.625616 0,1.625616 -5.91133,0 -5.9113305,0 0,12.266009 0,12.26601 19.6551725,0 19.655173,0 0,-12.26601 0,-12.266009 -5.91133,0 -5.91133,0 0,-1.625616 0,-1.625616 7.684729,0 7.684729,0 0,15.517241 0,15.517242 -23.201971,0 -23.20197054,0 0,-15.517242 z"
     id="path4180"
     inkscape:connector-curvature="0" />
  <path
     style="fill:#ff5500;fill-opacity:1"
     d="m 20.334975,54.650246 0,-5.172414 3.694581,0 3.694581,0 0,5.172414 0,5.172414 -3.694581,0 -3.694581,0 0,-5.172414 z m 4.958865,1.461072 c 0.797036,-0.558265 0.885037,-2.049135 0.167739,-2.84174 -0.661812,-0.731295 -2.302894,-0.704127 -3.057639,0.05062 -0.824878,0.824879 -0.748247,1.902475 0.187643,2.638647 0.928088,0.730034 1.806883,0.77962 2.702257,0.152475 z"
     id="path4182"
     inkscape:connector-curvature="0" />
  <path
     style="fill:#ff5500;fill-opacity:1"
     d="m 31.862069,64.995073 0,-1.625615 3.842364,0 3.842365,0 0,1.625615 0,1.625616 -3.842365,0 -3.842364,0 0,-1.625616 z"
     id="path4184"
     inkscape:connector-curvature="0" />
  <path
     style="fill:#ff5500;fill-opacity:1"
     d="m 31.862069,72.088669 0,-1.625615 3.842364,0 3.842365,0 0,1.625615 0,1.625616 -3.842365,0 -3.842364,0 0,-1.625616 z"
     id="path4186"
     inkscape:connector-curvature="0" />
  <path
     style="fill:#ff5500;fill-opacity:1"
     d="m 31.862069,79.182266 0,-1.625616 3.842364,0 3.842365,0 0,1.625616 0,1.625615 -3.842365,0 -3.842364,0 0,-1.625615 z"
     id="path4188"
     inkscape:connector-curvature="0" />
  <path
     style="fill:#ff5500;fill-opacity:1"
     d="M 8.6214362,79.425542 C 8.725645,78.665255 9.0180557,77.814305 9.2712377,77.534543 9.5244196,77.25478 10.73123,76.790466 11.953039,76.502735 c 2.308523,-0.543648 3.652872,-1.319669 3.652872,-2.108607 0,-0.252735 -0.427253,-1.327393 -0.949452,-2.388129 -1.758111,-3.57123 -1.377829,-6.694141 0.962529,-7.904388 1.155795,-0.597685 3.79631,-0.621664 4.912211,-0.04461 1.69601,0.877041 2.023007,1.53315 1.993751,4.000395 -0.02294,1.934773 -0.160403,2.510479 -0.960591,4.023123 -1.070238,2.023131 -1.138779,2.545627 -0.416576,3.175598 0.518591,0.452363 2.661807,1.210549 4.402849,1.557557 1.268831,0.252891 1.840121,0.97569 2.064384,2.611867 l 0.189471,1.382339 -9.686261,0 -9.6862606,0 0.1894708,-1.382339 z"
     id="path4190"
     inkscape:connector-curvature="0" />
  <path
     style="fill:#ff5500;fill-opacity:1"
     d="m 158.51232,82.92422 c -1.37363,-0.651251 -2.34259,-1.624526 -2.7882,-2.800605 -0.18492,-0.488076 -0.31525,-3.267863 -0.31525,-6.724138 l 0,-5.892088 1.47783,0 1.47783,0 0,5.423875 c 0,5.878908 0.1982,6.960038 1.42309,7.762613 1.5702,1.028839 5.60295,0.521164 7.96115,-1.002214 0.65296,-0.421804 0.66502,-0.536255 0.66502,-6.306937 l 0,-5.877337 1.47784,0 1.47783,0 0,7.832512 0,7.832512 -1.47783,0 c -1.45387,0 -1.47784,-0.01478 -1.47784,-0.91133 0,-0.501231 -0.0998,-0.860617 -0.22167,-0.798635 -3.28492,1.66998 -3.85153,1.848651 -6.13301,1.933921 -1.84314,0.06889 -2.62522,-0.03522 -3.54679,-0.472149 z"
     id="path4192"
     inkscape:connector-curvature="0" />
  <path
     style="fill:#ff5500;fill-opacity:1"
     d="m 178.16749,72.236453 0,-10.935961 1.47783,0 1.47783,0 0,10.935961 0,10.93596 -1.47783,0 -1.47783,0 0,-10.93596 z"
     id="path4194"
     inkscape:connector-curvature="0" />
  <path
     style="fill:#ff5500;fill-opacity:1"
     d="m 190.7016,72.236453 c 0,-2.682266 0.0448,-3.779557 0.0996,-2.438424 0.0548,1.341133 0.0548,3.535714 0,4.876847 -0.0548,1.341133 -0.0996,0.243843 -0.0996,-2.438423 z"
     id="path4196"
     inkscape:connector-curvature="0" />
  <path
     style="fill:#ff5500;fill-opacity:1"
     d="m 210.38424,75.339901 0,-7.832512 1.47783,0 c 1.45387,0 1.47783,0.01478 1.47783,0.91133 0,0.501231 0.1014,0.866995 0.22534,0.812808 0.12393,-0.05419 0.98095,-0.476217 1.90448,-0.937844 3.10257,-1.550822 6.93209,-1.354658 8.86857,0.454287 l 0.92096,0.860304 2.14382,-1.088148 c 4.53576,-2.302232 8.99056,-1.550431 10.49949,1.771913 0.47295,1.041326 0.5484,2.000472 0.554,7.042936 l 0.007,5.837438 -1.45111,0 -1.4511,0 -0.10282,-5.837438 c -0.0675,-3.830206 -0.22521,-6.052172 -0.45878,-6.461926 -0.89097,-1.563055 -4.63924,-1.733441 -7.48684,-0.340331 l -1.61093,0.788106 0.10473,5.925795 0.10473,5.925794 -1.63955,0 -1.63955,0 -0.0908,-6.085274 -0.0908,-6.085275 -0.82929,-0.712755 c -1.26294,-1.085461 -4.14615,-1.015213 -6.63377,0.161627 l -1.84729,0.873916 0,5.923881 0,5.92388 -1.47783,0 -1.47783,0 0,-7.832512 z"
     id="path4198"
     inkscape:connector-curvature="0" />
  <path
     style="fill:#ff5500;fill-opacity:1"
     d="m 190.72907,82.926972 c -2.74584,-1.295435 -3.10345,-2.407022 -3.10345,-9.646543 l 0,-5.77304 1.47783,0 1.47783,0 0,5.100473 c 0,2.805261 0.12983,5.55316 0.28851,6.106442 0.70519,2.458861 3.02163,3.213818 6.50952,2.121533 3.44888,-1.080069 3.25123,-0.628145 3.25123,-7.433878 l 0,-5.89457 1.47784,0 1.47783,0 0,7.832512 0,7.832512 -1.47783,0 c -1.45387,0 -1.47784,-0.01478 -1.47784,-0.91133 0,-0.501231 -0.0998,-0.860617 -0.22167,-0.798635 -3.28492,1.66998 -3.85154,1.848651 -6.13301,1.933921 -1.83805,0.0687 -2.62777,-0.03582 -3.54679,-0.469397 z"
     id="path4200"
     inkscape:connector-curvature="0" />
</svg>
