<?xml version="1.0" encoding="UTF-8" standalone="no"?>
<!-- Created with Inkscape (http://www.inkscape.org/) -->

<svg
   xmlns:dc="http://purl.org/dc/elements/1.1/"
   xmlns:cc="http://creativecommons.org/ns#"
   xmlns:rdf="http://www.w3.org/1999/02/22-rdf-syntax-ns#"
   xmlns:svg="http://www.w3.org/2000/svg"
   xmlns="http://www.w3.org/2000/svg"
   xmlns:sodipodi="http://sodipodi.sourceforge.net/DTD/sodipodi-0.dtd"
   xmlns:inkscape="http://www.inkscape.org/namespaces/inkscape"
   id="svg3336"
   version="1.1"
   inkscape:version="0.91 r13725"
   width="240"
   height="240"
   viewBox="0 0 240 240"
   sodipodi:docname="icono-nav.svg">
  <metadata
     id="metadata3342">
    <rdf:RDF>
      <cc:Work
         rdf:about="">
        <dc:format>image/svg+xml</dc:format>
        <dc:type
           rdf:resource="http://purl.org/dc/dcmitype/StillImage" />
        <dc:title></dc:title>
      </cc:Work>
    </rdf:RDF>
  </metadata>
  <defs
     id="defs3340" />
  <sodipodi:namedview
     pagecolor="#ffffff"
     bordercolor="#666666"
     borderopacity="1"
     objecttolerance="10"
     gridtolerance="10"
     guidetolerance="10"
     inkscape:pageopacity="0"
     inkscape:pageshadow="2"
     inkscape:window-width="1920"
     inkscape:window-height="1005"
     id="namedview3338"
     showgrid="false"
     showguides="true"
     inkscape:guide-bbox="true"
     inkscape:zoom="3.3833333"
     inkscape:cx="79.671067"
     inkscape:cy="84.532019"
     inkscape:window-x="1391"
     inkscape:window-y="-9"
     inkscape:window-maximized="1"
     inkscape:current-layer="svg3336">
    <sodipodi:guide
       position="168.76847,142.75862"
       orientation="0,1"
       id="guide3346" />
    <sodipodi:guide
       position="237.93104,159.90148"
       orientation="0,1"
       id="guide3348" />
  </sodipodi:namedview>
  <rect
     style="fill:#f00000;fill-opacity:0"
     id="rect4161"
     width="241.47783"
     height="75.073891"
     x="-0.8866995"
     y="113.7931" />
  <rect
     style="fill:#000000;fill-opacity:0"
     id="rect4165"
     width="194.18719"
     height="59.408867"
     x="6.5024633"
     y="126.79803" />
  <rect
     style="fill:#000000;fill-opacity:1"
     id="rect4167"
     width="240.29556"
     height="71.231529"
     x="-2.9480609e-007"
     y="111.133" />
  <path
     style="fill:#ff5500;fill-opacity:0"
     d="m 1.714285,143.61576 0,-15.51724 7.6847291,0 7.6847299,0 0,1.62562 0,1.62561 -5.91133,0 -5.911331,0 0,12.26601 0,12.26601 19.655173,0 19.655173,0 0,-12.26601 0,-12.26601 -5.91133,0 -5.91133,0 0,-1.62561 0,-1.62562 7.684729,0 7.684729,0 0,15.51724 0,15.51725 -23.201971,0 -23.201971,0 0,-15.51725 z"
     id="path4148"
     inkscape:connector-curvature="0" />
  <path
     style="fill:#ff5500;fill-opacity:0"
     d="m 1.714285,143.61576 0,-15.51724 7.6847291,0 7.6847299,0 0,1.62562 0,1.62561 -5.91133,0 -5.911331,0 0,12.26601 0,12.26601 19.655173,0 19.655173,0 0,-12.26601 0,-12.26601 -5.91133,0 -5.91133,0 0,-1.62561 0,-1.62562 7.684729,0 7.684729,0 0,15.51724 0,15.51725 -23.201971,0 -23.201971,0 0,-15.51725 z"
     id="path4150"
     inkscape:connector-curvature="0" />
  <path
     style="fill:#ff5500;fill-opacity:0"
     d="m 1.714285,143.61576 0,-15.51724 7.6847291,0 7.6847299,0 0,1.62562 0,1.62561 -5.91133,0 -5.911331,0 0,12.26601 0,12.26601 19.655173,0 19.655173,0 0,-12.26601 0,-12.26601 -5.91133,0 -5.91133,0 0,-1.62561 0,-1.62562 7.684729,0 7.684729,0 0,15.51724 0,15.51725 -23.201971,0 -23.201971,0 0,-15.51725 z"
     id="path4152"
     inkscape:connector-curvature="0" />
  <path
     style="fill:#ff5500;fill-opacity:0"
     d="m 1.714285,143.61576 0,-15.51724 7.6847291,0 7.6847299,0 0,1.62562 0,1.62561 -5.91133,0 -5.911331,0 0,12.26601 0,12.26601 19.655173,0 19.655173,0 0,-12.26601 0,-12.26601 -5.91133,0 -5.91133,0 0,-1.62561 0,-1.62562 7.684729,0 7.684729,0 0,15.51724 0,15.51725 -23.201971,0 -23.201971,0 0,-15.51725 z"
     id="path4154"
     inkscape:connector-curvature="0" />
  <path
     style="fill:#ff5500;fill-opacity:0"
     d="m 1.714285,143.61576 0,-15.51724 7.6847291,0 7.6847299,0 0,1.62562 0,1.62561 -5.91133,0 -5.911331,0 0,12.26601 0,12.26601 19.655173,0 19.655173,0 0,-12.26601 0,-12.26601 -5.91133,0 -5.91133,0 0,-1.62561 0,-1.62562 7.684729,0 7.684729,0 0,15.51724 0,15.51725 -23.201971,0 -23.201971,0 0,-15.51725 z"
     id="path4156"
     inkscape:connector-curvature="0" />
  <path
     style="fill:#000000;fill-opacity:1"
     d="m 51.369458,143.76355 0,-10.93596 1.620361,0 1.620361,0 0.07915,7.07979 0.07915,7.0798 4.792541,-3.99141 4.79254,-3.99141 1.709923,0.089 1.709922,0.089 -4.359606,3.50421 c -2.397783,1.92732 -4.359605,3.54633 -4.359605,3.5978 0,0.0515 2.134999,1.96596 4.744443,4.25441 l 4.744444,4.16082 -1.956838,0 -1.956837,0 -3.789312,-3.39901 c -2.084121,-1.86946 -3.895585,-3.39902 -4.025474,-3.39902 -0.129889,0 -0.67575,0.29926 -1.213024,0.66503 l -0.976861,0.66502 -0.002,2.73399 -0.002,2.73399 -1.625616,0 -1.625616,0 0,-10.93596 z"
     id="path4158"
     inkscape:connector-curvature="0" />
  <path
     style="fill:#000000;fill-opacity:1"
     d="m 51.369458,143.76355 0,-10.93596 1.620361,0 1.620361,0 0.07915,7.08629 0.07915,7.0863 4.729064,-3.97495 4.729064,-3.97494 1.867345,-0.008 1.867346,-0.008 -4.084094,3.29162 c -2.246252,1.81039 -4.255617,3.44972 -4.465256,3.64295 -0.303303,0.27956 0.590331,1.20713 4.374772,4.54089 l 4.755935,4.18956 -1.964769,0 -1.964769,0 -3.59227,-3.19788 c -1.975748,-1.75883 -3.764273,-3.29979 -3.974501,-3.42435 -0.231181,-0.13697 -0.785989,0.0815 -1.403941,0.55283 l -1.021709,0.77929 0,2.64506 0,2.64505 -1.625616,0 -1.625616,0 0,-10.93596 z"
     id="path4160"
     inkscape:connector-curvature="0" />
  <path
     style="fill:#000000;fill-opacity:1"
     d="m 51.369458,143.76355 0,-10.93596 1.625616,0 1.625616,0 0,6.94581 c 0,3.8202 0.09975,6.94329 0.221675,6.9402 0.121921,-0.003 2.283251,-1.72962 4.802956,-3.83675 l 4.58128,-3.83115 1.879773,-0.006 1.879772,-0.006 -3.505388,2.85081 c -1.927964,1.56795 -3.871152,3.12252 -4.318196,3.4546 -0.447044,0.33208 -0.812808,0.75086 -0.812808,0.93063 0,0.17976 2.04473,2.11657 4.543844,4.30402 l 4.543844,3.97718 -1.906241,0.0879 -1.906242,0.0879 -3.45041,-3.04595 c -4.871448,-4.30042 -4.306027,-3.98672 -5.518679,-3.06179 l -1.03518,0.78957 0,2.64506 0,2.64506 -1.625616,0 -1.625616,0 0,-10.93596 z"
     id="path4162"
     inkscape:connector-curvature="0" />
  <path
     style="fill:#ff5500;fill-opacity:1"
     d="m 135.31035,143.76355 0,-10.93596 1.47783,0 1.47783,0 0,7.09359 c 0,3.90148 0.0998,7.09167 0.22168,7.08931 0.12192,-0.002 2.34975,-1.79676 4.95073,-3.98756 l 4.72907,-3.98327 1.69951,-0.003 c 0.93473,-0.001 1.6995,0.0498 1.6995,0.11375 0,0.064 -1.92857,1.67646 -4.28571,3.58329 -2.35714,1.90682 -4.28571,3.51123 -4.28571,3.56534 0,0.0541 2.08663,1.93302 4.63696,4.17533 l 4.63697,4.07696 -1.84566,0.0884 -1.84566,0.0884 -3.82722,-3.43302 c -4.09832,-3.67619 -4.1985,-3.71772 -5.67165,-2.3509 -0.76322,0.70813 -0.81281,0.9067 -0.81281,3.25449 l 0,2.50036 -1.47783,0 -1.47783,0 0,-10.93596 z"
     id="path4164"
     inkscape:connector-curvature="0" />
  <path
     style="fill:#ff5500;fill-opacity:1"
     d="m 125.55665,146.867 0,-7.83252 1.47783,0 1.47784,0 0,7.83252 0,7.83251 -1.47784,0 -1.47783,0 0,-7.83251 z"
     id="path4166"
     inkscape:connector-curvature="0" />
  <path
     style="fill:#ff5500;fill-opacity:1"
     d="m 128.89242,135.04434 c 0.002,-0.81281 0.0596,-1.11024 0.12756,-0.66097 0.0679,0.44928 0.0661,1.11431 -0.004,1.47784 -0.0702,0.36353 -0.12574,-0.004 -0.12352,-0.81687 z"
     id="path4168"
     inkscape:connector-curvature="0" />
  <path
     style="fill:#ff5500;fill-opacity:1"
     d="m 125.26108,135.04434 0,-1.33005 1.7734,0 1.7734,0 0,1.33005 0,1.33004 -1.7734,0 -1.7734,0 0,-1.33004 z"
     id="path4170"
     inkscape:connector-curvature="0" />
  <path
     style="fill:#ff5500;fill-opacity:1"
     d="m 110.18719,146.867 0,-7.83252 1.62562,0 1.62561,0 0,1.2069 c 0,0.66379 0.0998,1.1618 0.22168,1.10668 0.12192,-0.0551 0.92374,-0.46938 1.78182,-0.92058 1.86258,-0.97938 4.13277,-1.45854 5.71311,-1.20583 1.10296,0.17637 1.15039,0.23031 1.15039,1.3083 l 0,1.12434 -2.58621,-0.0538 c -2.34042,-0.0486 -2.75474,0.0305 -4.3596,0.83296 l -1.7734,0.8867 -0.0803,5.68965 -0.0803,5.68966 -1.61923,0 -1.61924,0 0,-7.83252 z"
     id="path4172"
     inkscape:connector-curvature="0" />
  <path
     style="fill:#ff5500;fill-opacity:1"
     d="m 75.458129,154.45407 c -2.745833,-1.29544 -3.103449,-2.40703 -3.103449,-9.64655 l 0,-5.77304 1.455647,0 1.455647,0 0.09608,5.83744 c 0.102755,6.24315 0.212453,6.7345 1.678722,7.51908 1.510163,0.80807 5.636517,0.21004 7.648971,-1.10857 0.659104,-0.43186 0.669862,-0.53375 0.669862,-6.34343 l 0,-5.90452 1.477833,0 1.477833,0 0,7.83252 0,7.83251 -1.477833,0 c -1.453868,0 -1.477833,-0.0148 -1.477833,-0.91133 0,-0.50123 -0.09975,-0.86062 -0.221674,-0.79864 -3.284919,1.66998 -3.851534,1.84865 -6.133005,1.93392 -1.838056,0.0687 -2.627771,-0.0358 -3.546798,-0.46939 z"
     id="path4174"
     inkscape:connector-curvature="0" />
  <path
     style="fill:#ff5500;fill-opacity:1"
     d="m 95.113301,146.867 0,-7.83252 1.477833,0 1.477832,0 0,1.2069 c 0,0.66379 0.09975,1.1618 0.221675,1.10668 0.121921,-0.0551 0.923742,-0.46938 1.781819,-0.92058 1.86258,-0.97938 4.13277,-1.45854 5.71311,-1.20583 1.10139,0.17612 1.15039,0.23153 1.15039,1.30077 l 0,1.11682 -2.43842,-0.0244 c -2.41824,-0.0242 -4.04271,0.39758 -5.763549,1.49647 -0.651188,0.41583 -0.665025,0.54081 -0.665025,6.00644 l 0,5.58177 -1.477832,0 -1.477833,0 0,-7.83251 z"
     id="path4176"
     inkscape:connector-curvature="0" />
  <path
     style="fill:#ff5500;fill-opacity:1"
     d="m 51.369458,143.76355 0,-10.93596 1.625616,0 1.625616,0 0,6.94581 c 0,3.8202 0.09975,6.94187 0.221675,6.93704 0.121921,-0.005 2.283251,-1.73311 4.802956,-3.84065 l 4.58128,-3.83189 1.906404,-0.002 c 1.062329,-9.4e-4 1.782083,0.10889 1.625616,0.24808 -0.476884,0.42424 -7.912649,6.38769 -8.241997,6.61005 -0.402002,0.27141 1.12772,1.83614 5.52042,5.64675 l 3.47054,3.01066 -1.937023,0.0878 -1.937023,0.0878 -3.4547,-3.02176 c -1.900085,-1.66198 -3.684564,-3.2158 -3.965508,-3.45294 -0.455528,-0.3845 -0.623457,-0.34524 -1.551724,0.36279 l -1.040916,0.79394 0,2.64506 0,2.64506 -1.625616,0 -1.625616,0 0,-10.93596 z"
     id="path4178"
     inkscape:connector-curvature="0" />
  <path
     style="fill:#ff5500;fill-opacity:1"
     d="m 1.714285,143.61576 0,-15.51724 7.6847291,0 7.6847299,0 0,1.62562 0,1.62561 -5.91133,0 -5.911331,0 0,12.26601 0,12.26601 19.655173,0 19.655173,0 0,-12.26601 0,-12.26601 -5.91133,0 -5.91133,0 0,-1.62561 0,-1.62562 7.684729,0 7.684729,0 0,15.51724 0,15.51725 -23.201971,0 -23.201971,0 0,-15.51725 z"
     id="path4180"
     inkscape:connector-curvature="0" />
  <path
     style="fill:#ff5500;fill-opacity:1"
     d="m 21.221675,126.17734 0,-5.17241 3.694581,0 3.694581,0 0,5.17241 0,5.17241 -3.694581,0 -3.694581,0 0,-5.17241 z m 4.958865,1.46107 c 0.797036,-0.55826 0.885037,-2.04913 0.167739,-2.84174 -0.661812,-0.73129 -2.302894,-0.70412 -3.057639,0.0506 -0.824878,0.82488 -0.748247,1.90248 0.187643,2.63865 0.928088,0.73003 1.806883,0.77962 2.702257,0.15247 z"
     id="path4182"
     inkscape:connector-curvature="0" />
  <path
     style="fill:#ff5500;fill-opacity:1"
     d="m 32.748769,136.52217 0,-1.62562 3.842364,0 3.842365,0 0,1.62562 0,1.62561 -3.842365,0 -3.842364,0 0,-1.62561 z"
     id="path4184"
     inkscape:connector-curvature="0" />
  <path
     style="fill:#ff5500;fill-opacity:1"
     d="m 32.748769,143.61576 0,-1.62561 3.842364,0 3.842365,0 0,1.62561 0,1.62562 -3.842365,0 -3.842364,0 0,-1.62562 z"
     id="path4186"
     inkscape:connector-curvature="0" />
  <path
     style="fill:#ff5500;fill-opacity:1"
     d="m 32.748769,150.70936 0,-1.62562 3.842364,0 3.842365,0 0,1.62562 0,1.62562 -3.842365,0 -3.842364,0 0,-1.62562 z"
     id="path4188"
     inkscape:connector-curvature="0" />
  <path
     style="fill:#ff5500;fill-opacity:1"
     d="m 9.5081357,150.95264 c 0.1042088,-0.76029 0.3966195,-1.61124 0.6498013,-1.891 0.253182,-0.27977 1.459993,-0.74408 2.681802,-1.03181 2.308523,-0.54365 3.652872,-1.31967 3.652872,-2.10861 0,-0.25273 -0.427253,-1.32739 -0.949452,-2.38813 -1.758111,-3.57123 -1.377829,-6.69414 0.962529,-7.90438 1.155795,-0.59769 3.79631,-0.62167 4.912211,-0.0446 1.69601,0.87704 2.023007,1.53315 1.993751,4.00039 -0.02294,1.93477 -0.160403,2.51048 -0.960591,4.02312 -1.070238,2.02313 -1.138779,2.54563 -0.416576,3.1756 0.518591,0.45236 2.661807,1.21055 4.402849,1.55756 1.268831,0.25289 1.840121,0.97569 2.064384,2.61187 l 0.189471,1.38233 -9.686261,0 -9.6862611,0 0.1894708,-1.38233 z"
     id="path4190"
     inkscape:connector-curvature="0" />
  <path
     style="fill:#ff5500;fill-opacity:1"
     d="m 159.39902,154.45131 c -1.37363,-0.65125 -2.34259,-1.62452 -2.7882,-2.8006 -0.18492,-0.48808 -0.31525,-3.26786 -0.31525,-6.72414 l 0,-5.89209 1.47783,0 1.47783,0 0,5.42388 c 0,5.87891 0.1982,6.96004 1.42309,7.76261 1.5702,1.02884 5.60295,0.52117 7.96115,-1.00221 0.65296,-0.42181 0.66502,-0.53626 0.66502,-6.30694 l 0,-5.87734 1.47784,0 1.47783,0 0,7.83252 0,7.83251 -1.47783,0 c -1.45387,0 -1.47784,-0.0148 -1.47784,-0.91133 0,-0.50123 -0.0998,-0.86062 -0.22167,-0.79864 -3.28492,1.66998 -3.85153,1.84865 -6.13301,1.93392 -1.84314,0.0689 -2.62522,-0.0352 -3.54679,-0.47215 z"
     id="path4192"
     inkscape:connector-curvature="0" />
  <path
     style="fill:#ff5500;fill-opacity:1"
     d="m 179.05419,143.76355 0,-10.93596 1.47783,0 1.47783,0 0,10.93596 0,10.93596 -1.47783,0 -1.47783,0 0,-10.93596 z"
     id="path4194"
     inkscape:connector-curvature="0" />
  <path
     style="fill:#ff5500;fill-opacity:1"
     d="m 191.5883,143.76355 c 0,-2.68227 0.0448,-3.77956 0.0996,-2.43843 0.0548,1.34114 0.0548,3.53572 0,4.87685 -0.0548,1.34113 -0.0996,0.24384 -0.0996,-2.43842 z"
     id="path4196"
     inkscape:connector-curvature="0" />
  <path
     style="fill:#ff5500;fill-opacity:1"
     d="m 211.27094,146.867 0,-7.83252 1.47783,0 c 1.45387,0 1.47783,0.0148 1.47783,0.91133 0,0.50123 0.1014,0.867 0.22534,0.81281 0.12393,-0.0542 0.98095,-0.47622 1.90448,-0.93784 3.10257,-1.55082 6.93209,-1.35466 8.86857,0.45428 l 0.92096,0.86031 2.14382,-1.08815 c 4.53576,-2.30223 8.99056,-1.55043 10.49949,1.77191 0.47295,1.04133 0.5484,2.00048 0.554,7.04294 l 0.007,5.83744 -1.45111,0 -1.4511,0 -0.10282,-5.83744 c -0.0675,-3.83021 -0.22521,-6.05217 -0.45878,-6.46193 -0.89097,-1.56305 -4.63924,-1.73344 -7.48684,-0.34033 l -1.61093,0.78811 0.10473,5.92579 0.10473,5.9258 -1.63955,0 -1.63955,0 -0.0908,-6.08528 -0.0908,-6.08527 -0.82929,-0.71276 c -1.26294,-1.08546 -4.14615,-1.01521 -6.63377,0.16163 l -1.84729,0.87392 0,5.92388 0,5.92388 -1.47783,0 -1.47783,0 0,-7.83251 z"
     id="path4198"
     inkscape:connector-curvature="0" />
  <path
     style="fill:#ff5500;fill-opacity:1"
     d="m 191.61577,154.45407 c -2.74584,-1.29544 -3.10345,-2.40703 -3.10345,-9.64655 l 0,-5.77304 1.47783,0 1.47783,0 0,5.10048 c 0,2.80526 0.12983,5.55316 0.28851,6.10644 0.70519,2.45886 3.02163,3.21382 6.50952,2.12153 3.44888,-1.08007 3.25123,-0.62814 3.25123,-7.43388 l 0,-5.89457 1.47784,0 1.47783,0 0,7.83252 0,7.83251 -1.47783,0 c -1.45387,0 -1.47784,-0.0148 -1.47784,-0.91133 0,-0.50123 -0.0998,-0.86062 -0.22167,-0.79864 -3.28492,1.66998 -3.85154,1.84865 -6.13301,1.93392 -1.83805,0.0687 -2.62777,-0.0358 -3.54679,-0.46939 z"
     id="path4200"
     inkscape:connector-curvature="0" />
</svg>
